HIERARCHY
ROOT Hips
{
  OFFSET 41.6421 100.774 -260.36
  CHANNELS 6 Xposition Yposition Zposition Zrotation Xrotation Yrotation
  JOINT ToSpine
  {
    OFFSET -0.0105055 1.38907 -7.13956
    CHANNELS 3 Zrotation Xrotation Yrotation
    JOINT Spine
    {
      OFFSET 0.0105055 10 1
      CHANNELS 3 Zrotation Xrotation Yrotation
      JOINT Spine1
      {
        OFFSET 0 12 1.60637
        CHANNELS 3 Zrotation Xrotation Yrotation
        JOINT Neck
        {
          OFFSET 0 27 2.26658
          CHANNELS 3 Zrotation Xrotation Yrotation
          JOINT Head
          {
            OFFSET 0 9 2.12705
            CHANNELS 3 Zrotation Xrotation Yrotation
            End Site
            {
              OFFSET 0 11 2
            }
          }
        }
        JOINT LeftShoulder
        {
          OFFSET 8 19.6109 2.86452
          CHANNELS 3 Zrotation Xrotation Yrotation
          JOINT LeftArm
          {
            OFFSET 12 1 0.681055
            CHANNELS 3 Zrotation Xrotation Yrotation
            JOINT LeftForeArm
            {
              OFFSET 19 0 -1.52608
              CHANNELS 3 Zrotation Xrotation Yrotation
              JOINT LeftHand
              {
                OFFSET 23 0 0
                CHANNELS 3 Zrotation Xrotation Yrotation
                End Site
                {
                  OFFSET 10 0 0
                }
              }
            }
          }
        }
        JOINT RightShoulder
        {
          OFFSET -8 19.6109 2.86452
          CHANNELS 3 Zrotation Xrotation Yrotation
          JOINT RightArm
          {
            OFFSET -12 1 0.681055
            CHANNELS 3 Zrotation Xrotation Yrotation
            JOINT RightForeArm
            {
              OFFSET -19 0 -1.52608
              CHANNELS 3 Zrotation Xrotation Yrotation
              JOINT RightHand
              {
                OFFSET -23 0 0
                CHANNELS 3 Zrotation Xrotation Yrotation
                End Site
                {
                  OFFSET -10 0 0
                }
              }
            }
          }
        }
      }
    }
  }
  JOINT LeftUpLeg
  {
    OFFSET 9 -7.17245 0
    CHANNELS 3 Zrotation Xrotation Yrotation
    JOINT LeftLeg
    {
      OFFSET 0 -44.1113 0
      CHANNELS 3 Zrotation Xrotation Yrotation
      JOINT LeftFoot
      {
        OFFSET 0 -36.1829 0
        CHANNELS 3 Zrotation Xrotation Yrotation
        JOINT LeftToeBase
        {
          OFFSET 0 -4.84184 13
          CHANNELS 3 Zrotation Xrotation Yrotation
          End Site
          {
            OFFSET 0 1 6
          }
        }
      }
    }
  }
  JOINT RightUpLeg
  {
    OFFSET -9 -7.17245 0
    CHANNELS 3 Zrotation Xrotation Yrotation
    JOINT RightLeg
    {
      OFFSET 0 -44.0551 0
      CHANNELS 3 Zrotation Xrotation Yrotation
      JOINT RightFoot
      {
        OFFSET 0 -36.1469 0
        CHANNELS 3 Zrotation Xrotation Yrotation
        JOINT RightToeBase
        {
          OFFSET 0 -4.92256 13
          CHANNELS 3 Zrotation Xrotation Yrotation
          End Site
          {
            OFFSET 0 1 6
          }
        }
      }
    }
  }
}
MOTION
Frames:	12
Frame Time:	0.0333333
41.6306 100.777 -260.361 0.864483 -3.47162 -4.21062 0 0 0 4.09058 0.961756 1.15393 -6.74473 3.45625 2.40868 7.5585 3.24651 -1.49286 -3.24612 -0.710646 1.67855 -24.4181 3.31915 -7.29707 -47.1738 26.1832 -18.9687 -6.62263 -12.693 1.22167 -9.37387 0.425498 -5.17906 23.6975 5.10358 13.4165 54.8576 12.3301 7.21548 3.69147 -4.6983 8.25319 1.81529 0.0379728 2.83463 0.98523 5.24019 6.98144 1.07857 3.71623 6.65389 -0.0455698 -5.27398 -0.00209839 0.0296247 -1.03734 0.163597 -3.97634 2.28906 -9.45913 0.00625894 4.39914 -8.83059 -8.70258 0.344838 0.0260736 3.23645 -11.7034 -4.84515 
41.5844 100.784 -260.351 0.847951 -3.52422 -4.13366 0 0 0 3.89384 1.14032 1.078 -6.39628 3.44098 2.26187 7.20294 3.06282 -1.41834 -3.06907 -0.286832 1.59646 -24.8573 3.27281 -7.01006 -46.5052 27.8632 -18.9651 -6.58076 -15.7707 0.25564 -8.89206 0.366472 -4.71204 23.9231 5.32134 14.0088 54.47 13.1512 6.84097 4.65181 -8.87153 8.2493 3.37775 0.0488151 1.58776 1.08379 5.26508 7.08005 1.00842 3.84653 6.218 -0.190122 -5.39371 -0.00897388 -0.0381177 -1.00731 0.450928 -3.90266 2.37919 -9.41749 -0.0616562 4.34154 -8.99979 -8.43045 0.529717 0.0399492 3.2984 -11.9586 -4.99031 
41.5304 100.771 -260.283 0.849475 -3.72961 -3.77111 0 0 0 3.47219 1.70043 0.779871 -5.51041 2.9808 1.76019 5.86372 3.54457 -0.887149 -2.35669 -0.523343 1.5525 -26.4419 3.25288 -6.45304 -44.8913 28.9868 -18.5116 -6.96062 -16.7699 -0.795708 -9.14644 0.342786 -4.2939 23.5562 5.37549 14.386 54.3261 13.3502 6.51513 4.5956 -8.4217 8.43345 2.34527 0.0566489 2.85521 1.20189 5.40664 7.21161 0.921831 4.03498 5.81037 -0.124651 -5.59539 -0.0063105 0.248825 -1.50705 -0.674904 -3.86568 2.785 -9.53682 0.114635 4.13311 -9.23467 -9.33429 0.954298 0.0774899 3.57277 -13.1617 -5.47761 
41.4428 100.747 -260.172 0.764912 -3.72595 -3.46486 0 0 0 3.64745 1.46553 0.686876 -5.74979 3.41931 1.71497 6.15291 3.25351 -1.02071 -2.38583 -0.423306 1.50792 -25.9467 3.19527 -6.42503 -45.2898 28.8401 -18.6232 -6.98778 -17.0292 -0.834739 -9.4759 0.281099 -3.38894 23.898 5.39224 14.2512 53.9317 13.0625 6.53068 4.00563 -5.97524 8.71845 1.18983 0.0413174 3.85809 1.50261 5.36171 7.46976 0.704159 4.21151 5.02853 0.186025 -5.45224 0.00853493 0.0942378 -1.97147 0.145336 -3.67309 3.02133 -9.43827 0.0952269 3.8926 -9.47578 -9.34078 1.04041 0.0859543 3.52893 -12.9316 -6.06875 
41.3164 100.721 -260.119 0.798222 -3.73085 -3.19968 0 0 0 3.58107 1.41753 0.719419 -5.89737 3.52616 1.77179 6.66004 3.64122 -1.35229 -2.88013 -1.05849 1.45995 -25.8313 3.22156 -6.54059 -45.3682 28.3478 -18.9235 -6.84233 -16.5363 -0.12584 -9.18402 0.291976 -3.63484 24.164 5.35432 13.982 53.6128 13.4252 6.73907 4.19052 -6.31699 8.49241 1.12348 0.0378006 3.94926 1.68618 5.27396 7.67495 0.571211 4.48927 4.84841 -0.215583 -5.96455 -0.0110494 0.258609 -1.10427 -0.810848 -3.50946 3.18518 -9.25136 -0.0289377 3.63172 -9.88226 -9.6772 1.4723 0.127308 3.67173 -13.5784 -6.22996 
41.2255 100.751 -260.027 0.618542 -3.84436 -2.95019 0 0 0 3.49977 1.4581 0.720524 -5.37952 3.79762 1.67784 6.07524 3.47578 -1.05606 -2.31819 -1.16185 1.4307 -26.3186 3.23607 -6.44079 -44.5935 29.1001 -19.2066 -7.06088 -17.2673 -0.381835 -9.58892 0.28871 -3.43942 23.8427 5.20323 13.6679 53.6164 13.6067 6.9834 4.2236 -6.2693 8.47439 0.908837 0.0363328 4.50793 2.00918 5.51092 7.86352 0.454449 4.33736 4.17878 -0.174508 -5.74131 -0.00876533 0.176495 -1.51624 -0.343354 -3.20305 3.51889 -9.14671 -0.204049 3.55224 -10.5104 -8.42846 0.62222 0.0459109 3.37853 -12.2989 -5.29399 
41.2199 100.734 -259.983 0.71999 -3.68941 -3.0633 0 0 0 3.48608 1.67 0.75566 -5.30214 3.35199 1.69108 5.77554 3.69378 -0.992743 -2.24843 -1.08106 1.39245 -26.6808 3.22235 -6.2934 -44.5521 29.2552 -18.7532 -7.10682 -17.5287 -0.840327 -9.55097 0.271703 -3.25259 23.5103 5.30949 14.195 53.9405 13.578 6.48247 4.36935 -7.026 8.80792 2.23269 0.0887044 4.4024 1.90051 5.39772 7.81641 0.453418 4.28828 4.45695 -0.0402592 -5.75442 -0.00209069 0.230927 -1.6049 -0.560984 -3.29629 3.33319 -9.15684 -0.120738 3.54067 -10.2626 -9.456 1.05282 0.0871512 3.55288 -13.0617 -5.67367 
41.1847 100.756 -259.86 0.668569 -3.83153 -3.03429 0 0 0 3.55626 1.8742 0.786744 -5.24211 3.22401 1.72076 5.64698 4.0662 -0.858171 -2.00083 -1.32932 1.44419 -26.7116 3.24549 -6.35475 -44.7799 28.9384 -18.5591 -7.04493 -17.0116 -0.596705 -10.0972 0.285396 -3.22972 23.5398 5.33028 14.2472 53.8617 13.3266 6.27675 3.94673 -5.3287 9.00209 0.457652 0.0125006 3.55864 1.85959 5.78136 7.70949 0.598556 3.97954 4.54113 -0.277849 -5.82075 -0.0140938 0.19001 -1.20456 -0.489293 -3.25851 3.64629 -9.26806 -0.1354 3.46099 -10.175 -8.69704 0.722812 0.0545824 3.42749 -12.4928 -5.69285 
41.1576 100.75 -259.787 0.740539 -3.73515 -3.08802 0 0 0 3.63256 1.96504 0.834479 -5.47536 3.00352 1.81461 5.79387 4.30513 -0.800204 -2.08722 -1.5155 1.57739 -26.6338 3.28177 -6.48714 -45.0453 28.5474 -18.2689 -6.90138 -16.835 -0.464598 -9.94853 0.276735 -3.1803 23.6151 5.34074 14.2394 53.7841 13.4292 6.26825 3.9815 -5.22638 9.01884 1.2804 0.0367952 3.25876 1.7367 5.6942 7.55398 0.763842 4.00649 4.75984 -0.315207 -5.6127 -0.0155076 0.2266 -1.88759 -0.466227 -3.28955 3.58299 -9.24221 -0.126463 3.38714 -10.079 -9.11053 0.996896 0.0807144 3.5165 -12.8771 -5.92124 
41.1457 100.719 -259.672 0.903348 -3.61633 -2.84718 0 0 0 3.61955 1.83903 0.768249 -5.67878 2.96402 1.78553 5.94608 4.52255 -0.954409 -2.12554 -1.70225 1.4906 -26.5266 3.30333 -6.58441 -45.2388 28.3129 -18.0736 -6.69061 -16.3566 -0.510317 -9.95224 0.236989 -2.7238 24.1843 5.41973 14.1833 53.3546 13.3095 6.09498 3.9777 -5.60741 9.18022 0.970455 0.0299671 3.27018 1.53261 5.56891 7.3311 0.922426 4.04603 4.84856 -0.44865 -5.73768 -0.0223891 0.302438 -1.65216 -0.866327 -3.4091 3.64088 -9.33207 -0.0159986 3.08424 -10.1259 -10.0398 1.65803 0.145025 3.75273 -13.9657 -6.42397 
41.0736 100.753 -259.616 0.816077 -3.35118 -2.99738 0 0 0 3.8022 1.56262 0.876214 -5.8468 3.14198 1.94014 6.50979 4.54822 -1.1295 -2.56248 -1.83343 1.59607 -26.3005 3.31159 -6.67679 -45.3561 28.2571 -18.1624 -6.7921 -16.6469 -0.235005 -9.67283 0.257254 -3.03632 24.5043 5.3888 13.9104 53.141 13.2579 6.51799 4.24384 -6.64384 8.75667 2.10438 0.0728058 3.9322 1.58346 5.42516 7.21328 1.08036 3.87407 4.93973 -0.588764 -5.52377 -0.0284705 0.231558 -1.86835 -0.492965 -3.21151 3.39727 -9.16779 -0.152286 3.03728 -10.4698 -10.1388 1.48532 0.132041 3.73167 -13.871 -5.30164 
41.0261 100.739 -259.495 0.802262 -3.38279 -2.82588 0 0 0 3.88256 1.61161 0.817251 -5.7763 3.23928 1.86742 6.05909 4.22486 -0.883668 -2.35345 -1.89646 1.62835 -26.4584 3.27257 -6.5112 -45.1827 28.3478 -18.0561 -6.8817 -16.387 -0.508679 -10.4224 0.287705 -3.15477 24.0849 5.31221 13.8906 53.3281 13.1234 6.16548 3.62112 -4.3837 9.69902 0.836749 0.0254532 3.54565 1.69765 5.51954 7.32078 1.00537 3.92298 4.77993 -0.683693 -5.78799 -0.0345942 0.248461 -1.54909 -0.653351 -3.05708 3.65366 -9.02861 -0.29092 2.71924 -10.7389 -10.3947 1.79866 0.163601 3.85828 -14.4201 -4.91477 
